<mxfile host="app.diagrams.net" modified="2023-02-02T15:13:01.061Z" agent="5.0 (Macintosh; Intel Mac OS X 10_15_7) AppleWebKit/605.1.15 (KHTML, like Gecko) Version/16.2 Safari/605.1.15" etag="hDbMa1kotZD-PaelGnHJ" version="20.8.15" type="github">
  <diagram name="Page-1" id="XbLDaqtRXeKVts6gPO9H">
    <mxGraphModel dx="701" dy="911" grid="1" gridSize="10" guides="1" tooltips="1" connect="1" arrows="1" fold="1" page="1" pageScale="1" pageWidth="850" pageHeight="1100" math="0" shadow="0">
      <root>
        <mxCell id="0" />
        <mxCell id="1" parent="0" />
        <mxCell id="CVBLjFyR3BGaSGpz_svB-3" style="edgeStyle=orthogonalEdgeStyle;rounded=0;orthogonalLoop=1;jettySize=auto;html=1;exitX=0.25;exitY=1;exitDx=0;exitDy=0;entryX=0.5;entryY=0;entryDx=0;entryDy=0;" edge="1" parent="1" source="CVBLjFyR3BGaSGpz_svB-1" target="CVBLjFyR3BGaSGpz_svB-2">
          <mxGeometry relative="1" as="geometry">
            <Array as="points">
              <mxPoint x="390" y="100" />
              <mxPoint x="340" y="100" />
            </Array>
          </mxGeometry>
        </mxCell>
        <mxCell id="CVBLjFyR3BGaSGpz_svB-5" style="edgeStyle=orthogonalEdgeStyle;rounded=0;orthogonalLoop=1;jettySize=auto;html=1;exitX=0.75;exitY=1;exitDx=0;exitDy=0;entryX=0.5;entryY=0;entryDx=0;entryDy=0;" edge="1" parent="1" source="CVBLjFyR3BGaSGpz_svB-1" target="CVBLjFyR3BGaSGpz_svB-4">
          <mxGeometry relative="1" as="geometry">
            <Array as="points">
              <mxPoint x="450" y="100" />
              <mxPoint x="500" y="100" />
            </Array>
          </mxGeometry>
        </mxCell>
        <mxCell id="CVBLjFyR3BGaSGpz_svB-1" value="main" style="rounded=0;whiteSpace=wrap;html=1;" vertex="1" parent="1">
          <mxGeometry x="360" y="70" width="120" height="20" as="geometry" />
        </mxCell>
        <mxCell id="CVBLjFyR3BGaSGpz_svB-23" value="" style="edgeStyle=orthogonalEdgeStyle;rounded=0;orthogonalLoop=1;jettySize=auto;html=1;" edge="1" parent="1" source="CVBLjFyR3BGaSGpz_svB-2" target="CVBLjFyR3BGaSGpz_svB-22">
          <mxGeometry relative="1" as="geometry" />
        </mxCell>
        <mxCell id="CVBLjFyR3BGaSGpz_svB-2" value="client" style="rounded=0;whiteSpace=wrap;html=1;" vertex="1" parent="1">
          <mxGeometry x="280" y="120" width="120" height="40" as="geometry" />
        </mxCell>
        <mxCell id="CVBLjFyR3BGaSGpz_svB-7" style="edgeStyle=orthogonalEdgeStyle;rounded=0;orthogonalLoop=1;jettySize=auto;html=1;exitX=0.5;exitY=1;exitDx=0;exitDy=0;entryX=0.5;entryY=0;entryDx=0;entryDy=0;" edge="1" parent="1" source="CVBLjFyR3BGaSGpz_svB-4" target="CVBLjFyR3BGaSGpz_svB-6">
          <mxGeometry relative="1" as="geometry" />
        </mxCell>
        <mxCell id="CVBLjFyR3BGaSGpz_svB-4" value="server" style="rounded=0;whiteSpace=wrap;html=1;" vertex="1" parent="1">
          <mxGeometry x="440" y="120" width="120" height="40" as="geometry" />
        </mxCell>
        <mxCell id="CVBLjFyR3BGaSGpz_svB-10" style="edgeStyle=orthogonalEdgeStyle;rounded=0;orthogonalLoop=1;jettySize=auto;html=1;exitX=1;exitY=0;exitDx=0;exitDy=0;entryX=0;entryY=0;entryDx=0;entryDy=0;" edge="1" parent="1" source="CVBLjFyR3BGaSGpz_svB-6" target="CVBLjFyR3BGaSGpz_svB-9">
          <mxGeometry relative="1" as="geometry">
            <Array as="points">
              <mxPoint x="580" y="180" />
              <mxPoint x="580" y="180" />
            </Array>
          </mxGeometry>
        </mxCell>
        <mxCell id="CVBLjFyR3BGaSGpz_svB-12" value="" style="edgeStyle=orthogonalEdgeStyle;rounded=0;orthogonalLoop=1;jettySize=auto;html=1;" edge="1" parent="1" source="CVBLjFyR3BGaSGpz_svB-6" target="CVBLjFyR3BGaSGpz_svB-11">
          <mxGeometry relative="1" as="geometry" />
        </mxCell>
        <mxCell id="CVBLjFyR3BGaSGpz_svB-6" value="preload:&lt;br&gt;creates the necessary objects for the rest of the programming to function properly" style="shape=process;whiteSpace=wrap;html=1;backgroundOutline=1;" vertex="1" parent="1">
          <mxGeometry x="440" y="180" width="120" height="110" as="geometry" />
        </mxCell>
        <mxCell id="CVBLjFyR3BGaSGpz_svB-14" style="edgeStyle=orthogonalEdgeStyle;rounded=0;orthogonalLoop=1;jettySize=auto;html=1;exitX=0;exitY=1;exitDx=0;exitDy=0;entryX=1;entryY=0;entryDx=0;entryDy=0;" edge="1" parent="1" source="CVBLjFyR3BGaSGpz_svB-9" target="CVBLjFyR3BGaSGpz_svB-11">
          <mxGeometry relative="1" as="geometry">
            <Array as="points">
              <mxPoint x="600" y="310" />
            </Array>
          </mxGeometry>
        </mxCell>
        <mxCell id="CVBLjFyR3BGaSGpz_svB-9" value="Create Remote Events" style="rounded=0;whiteSpace=wrap;html=1;" vertex="1" parent="1">
          <mxGeometry x="600" y="180" width="120" height="30" as="geometry" />
        </mxCell>
        <mxCell id="CVBLjFyR3BGaSGpz_svB-15" style="edgeStyle=orthogonalEdgeStyle;rounded=0;orthogonalLoop=1;jettySize=auto;html=1;exitX=0.5;exitY=1;exitDx=0;exitDy=0;" edge="1" parent="1" source="CVBLjFyR3BGaSGpz_svB-11">
          <mxGeometry relative="1" as="geometry">
            <mxPoint x="499.8333333333335" y="360" as="targetPoint" />
          </mxGeometry>
        </mxCell>
        <mxCell id="CVBLjFyR3BGaSGpz_svB-11" value="returns true" style="shape=process;whiteSpace=wrap;html=1;backgroundOutline=1;" vertex="1" parent="1">
          <mxGeometry x="440" y="310" width="120" height="30" as="geometry" />
        </mxCell>
        <mxCell id="CVBLjFyR3BGaSGpz_svB-13" style="edgeStyle=orthogonalEdgeStyle;rounded=0;orthogonalLoop=1;jettySize=auto;html=1;exitX=0.5;exitY=1;exitDx=0;exitDy=0;" edge="1" parent="1" source="CVBLjFyR3BGaSGpz_svB-11" target="CVBLjFyR3BGaSGpz_svB-11">
          <mxGeometry relative="1" as="geometry" />
        </mxCell>
        <mxCell id="CVBLjFyR3BGaSGpz_svB-19" value="" style="edgeStyle=orthogonalEdgeStyle;rounded=0;orthogonalLoop=1;jettySize=auto;html=1;" edge="1" parent="1" source="CVBLjFyR3BGaSGpz_svB-16" target="CVBLjFyR3BGaSGpz_svB-18">
          <mxGeometry relative="1" as="geometry" />
        </mxCell>
        <mxCell id="CVBLjFyR3BGaSGpz_svB-24" style="edgeStyle=orthogonalEdgeStyle;rounded=0;orthogonalLoop=1;jettySize=auto;html=1;exitX=0;exitY=0.5;exitDx=0;exitDy=0;entryX=1;entryY=0.5;entryDx=0;entryDy=0;" edge="1" parent="1" source="CVBLjFyR3BGaSGpz_svB-16" target="CVBLjFyR3BGaSGpz_svB-22">
          <mxGeometry relative="1" as="geometry" />
        </mxCell>
        <mxCell id="CVBLjFyR3BGaSGpz_svB-16" value="onPlayerJoin()" style="rounded=0;whiteSpace=wrap;html=1;" vertex="1" parent="1">
          <mxGeometry x="440" y="360" width="120" height="40" as="geometry" />
        </mxCell>
        <mxCell id="CVBLjFyR3BGaSGpz_svB-21" value="" style="edgeStyle=orthogonalEdgeStyle;rounded=0;orthogonalLoop=1;jettySize=auto;html=1;" edge="1" parent="1" source="CVBLjFyR3BGaSGpz_svB-18" target="CVBLjFyR3BGaSGpz_svB-20">
          <mxGeometry relative="1" as="geometry" />
        </mxCell>
        <mxCell id="CVBLjFyR3BGaSGpz_svB-18" value="getFromDataStore()" style="whiteSpace=wrap;html=1;rounded=0;" vertex="1" parent="1">
          <mxGeometry x="440" y="420" width="120" height="40" as="geometry" />
        </mxCell>
        <mxCell id="CVBLjFyR3BGaSGpz_svB-27" value="Pass essential &lt;br&gt;data for the GUI" style="edgeStyle=orthogonalEdgeStyle;rounded=0;orthogonalLoop=1;jettySize=auto;html=1;exitX=0;exitY=0.5;exitDx=0;exitDy=0;entryX=1;entryY=0.75;entryDx=0;entryDy=0;" edge="1" parent="1" source="CVBLjFyR3BGaSGpz_svB-20" target="CVBLjFyR3BGaSGpz_svB-26">
          <mxGeometry x="0.1111" y="-20" relative="1" as="geometry">
            <Array as="points">
              <mxPoint x="440" y="510" />
            </Array>
            <mxPoint as="offset" />
          </mxGeometry>
        </mxCell>
        <mxCell id="CVBLjFyR3BGaSGpz_svB-20" value="create Actor object()" style="whiteSpace=wrap;html=1;rounded=0;" vertex="1" parent="1">
          <mxGeometry x="440" y="480" width="120" height="40" as="geometry" />
        </mxCell>
        <mxCell id="CVBLjFyR3BGaSGpz_svB-25" style="edgeStyle=orthogonalEdgeStyle;rounded=0;orthogonalLoop=1;jettySize=auto;html=1;exitX=0.5;exitY=1;exitDx=0;exitDy=0;entryX=0;entryY=0.5;entryDx=0;entryDy=0;" edge="1" parent="1" source="CVBLjFyR3BGaSGpz_svB-22" target="CVBLjFyR3BGaSGpz_svB-18">
          <mxGeometry relative="1" as="geometry" />
        </mxCell>
        <mxCell id="CVBLjFyR3BGaSGpz_svB-22" value="getPlayerName" style="whiteSpace=wrap;html=1;rounded=0;" vertex="1" parent="1">
          <mxGeometry x="280" y="360" width="120" height="40" as="geometry" />
        </mxCell>
        <mxCell id="CVBLjFyR3BGaSGpz_svB-26" value="createGUI()" style="rounded=0;whiteSpace=wrap;html=1;" vertex="1" parent="1">
          <mxGeometry x="280" y="480" width="80" height="40" as="geometry" />
        </mxCell>
      </root>
    </mxGraphModel>
  </diagram>
</mxfile>
